# xmcd CD database file generated by OrangeCD 5.2
#
# Track frame offsets:
#	150
#	27867
#	53575
#	67585
#	87405
#	105982
#	127065
#	142965
#	175330
#	197872
#	220275
#	244697
#	256227
#	274305
#	288442
#	305930
#
# Disc length: 4251 seconds
#
# Revision: 4
# Processed by: cddbd v1.5.1PL0 Copyright (c) Steve Scherf et al.
# Submitted via: OrangeCD 5.2
#
DISCID=ec109910
DTITLE=Various Artist - Blues Masters Vol. 10  Blues Roots
DYEAR=1993
DGENRE=Blues Masters
TTITLE0=Jali Nyama Suso - Kedo
TTITLE1=Mandingo Griots - Tutu Jara
TTITLE2=Fula Flutist - Bengsimbe
TTITLE3=Robert Pete Williams - You're My All Night Steady
TTITLE4=Furry Lewis - Pearlee Blues
TTITLE5=Ethel Perkins and Equila Hall - My Soul Will Be Saved
TTITLE6=Ethel Perkins - A Child Will Rise
TTITLE7=One String - Rolling And Tumbling Blues
TTITLE8=J.D. Short - Slidin' Delta
TTITLE9=Rich Amerson - Black Woman
TTITLE10=Texas Prison Camp Work Gang - Go Down Old Hannah
TTITLE11=Times Done Changed - Sister Dora Alexander - Russia, Let God's Moon Al
TTITLE11=one
TTITLE12=Daddy Hotcakes - Well, I've Been Down To Memphis
TTITLE13=The Mobile Strugglers - Raise A Ruckus Tonight
TTITLE14=Joe Hunter - Have You Ever Been Mistreated
TTITLE15=Lightnin' Hopkins - Penitentiary Blues
EXTD=
EXTT0=
EXTT1=
EXTT2=
EXTT3=
EXTT4=
EXTT5=
EXTT6=
EXTT7=
EXTT8=
EXTT9=
EXTT10=
EXTT11=
EXTT12=
EXTT13=
EXTT14=
EXTT15=
PLAYORDER=
